<svg width="66" height="20" viewBox="0 0 66 20" fill="none" xmlns="http://www.w3.org/2000/svg">
<path d="M59.9727 16.8844C59.9727 15.3062 61.2579 13.959 63.0099 13.959C64.7619 13.959 66.0007 15.3052 66.0007 16.8844C66.0007 18.4636 64.7154 19.8098 63.0099 19.8098C61.3044 19.8098 59.9727 18.4636 59.9727 16.8844Z" fill="white"/>
<path d="M-0.00390625 19.6439V0.205078H7.18504V14.1244H12.8261V19.6439H-0.00390625Z" fill="white"/>
<path d="M42.9844 19.6445L49.4458 9.73384H43.7634V4.37695H59.2194L53.2338 14.126H58.6202V19.6455H42.9844V19.6445Z" fill="white"/>
<path d="M42.0996 9.73196V4.37506H38.6551V0H31.4662V7.04247C31.4662 9.24104 31.3045 10.5331 30.4942 11.9205C30.283 12.2297 30.0759 12.4716 29.9122 12.6684C28.6593 14.1743 26.3819 15.2987 24.0792 15.2866C23.7053 15.2846 22.3838 15.128 22.0574 14.9383C22.9637 14.7284 23.8498 14.4032 24.6854 13.9685C27.3125 12.6011 29.6485 9.59643 28.5724 6.2303C27.7055 3.51872 24.8431 1.77392 21.9129 2.17348C21.6209 2.21363 21.3289 2.27387 21.046 2.35418C18.9151 2.95653 16.9883 4.53569 15.6222 6.79952C15.2918 7.34766 15.0089 7.9219 14.7816 8.50818C14.3309 8.21805 13.9308 7.9229 13.6317 7.65485L11.7969 6.00341L8.47266 9.64863L10.3075 11.3001C11.3007 12.1946 12.7911 13.1443 14.2663 13.8671C15.209 17.7984 19.4092 19.9267 23.1072 19.998C23.1729 19.999 23.2385 20 23.3052 20C26.1919 20 29.5949 19.22 31.9744 16.9842C32.9767 19.4217 35.3279 20 37.8175 20C39.8242 20 41.1124 19.8213 42.1006 19.6426V14.4343C41.5317 14.4935 41.1417 14.5236 40.6628 14.5236C39.7645 14.5236 38.6561 14.1371 38.6561 12.559V9.73196H42.1006H42.0996ZM19.1495 10.6234C19.1495 10.6234 19.6658 8.69792 21.0763 7.51531C22.4868 6.3327 23.7175 6.21925 24.2479 6.94408C24.7774 7.66891 24.2894 8.79631 22.7202 9.76408C21.1521 10.7319 19.1485 10.6234 19.1485 10.6234H19.1495Z" fill="white"/>
</svg>
