<svg width="68" height="19" viewBox="0 0 68 19" fill="none" xmlns="http://www.w3.org/2000/svg">
<path fill-rule="evenodd" clip-rule="evenodd" d="M47.5368 0.586914H49.2575V17.9231H47.9527C47.3567 17.9184 46.828 17.5404 46.6316 16.9785C43.9495 18.9197 40.2975 18.8263 37.7185 16.7505C36.1842 15.5068 35.3484 13.5979 35.4759 11.6286C35.6557 9.25153 37.1784 7.18535 39.3977 6.30688C41.617 5.42841 44.1438 5.89172 45.9058 7.5002V2.21549C45.9058 1.31605 46.6361 0.586914 47.5368 0.586914ZM42.3993 15.7489C44.3506 15.6608 45.8654 14.0174 45.7917 12.0683C45.9007 10.785 45.2767 9.54965 44.1783 8.87445C43.0799 8.19925 41.6943 8.19925 40.5959 8.87445C39.4974 9.54965 38.8734 10.785 38.9825 12.0683C38.909 14.0265 40.4383 15.6739 42.3993 15.7489ZM34.0896 17.9231H32.8501C32.2481 17.9253 31.711 17.546 31.5127 16.9785C28.8306 18.9197 25.1786 18.8263 22.5995 16.7505C21.0652 15.5068 20.2295 13.5979 20.357 11.6286C20.5244 9.23486 22.0539 7.14994 24.2891 6.26865C26.5242 5.38736 29.0676 5.86641 30.8277 7.5002C30.9117 6.69837 31.5705 6.07857 32.3771 6.04263H34.0896V17.9231ZM27.2315 15.7489H27.2478C29.1979 15.6609 30.7103 14.016 30.632 12.0683C30.7055 10.1177 29.1847 8.47531 27.2315 8.39591C25.2782 8.47531 23.7574 10.1177 23.8309 12.0683C23.7573 14.0204 25.2769 15.6652 27.2315 15.7489ZM67.9074 6.05077V7.76891L62.142 15.1463H67.8993V17.9719H57.2981V16.2619L63.0716 8.87634H57.6732V7.67934C57.6732 6.77991 58.4034 6.05077 59.3041 6.05077H67.9074ZM53.5469 4.71534C52.4299 4.71534 51.5245 3.81121 51.5245 2.69591C51.5245 1.58061 52.4299 0.676486 53.5469 0.676486C54.6638 0.676486 55.5692 1.58061 55.5692 2.69591C55.5692 3.81121 54.6638 4.71534 53.5469 4.71534ZM17.1359 6.05077H20.5119L16.5487 17.9312H13.1645L10.5468 10.3095L7.92913 17.9312H4.5449L0.589844 6.05077H3.95776L6.36342 13.4282L8.40211 7.12563C8.62808 6.47996 9.234 6.04407 9.91889 6.03449H12.2838L14.7302 13.4282L17.1359 6.05077ZM51.9159 17.9312L51.8833 7.67934C51.8833 6.77991 52.6135 6.05077 53.5142 6.05077H55.2349V17.9312H51.9159Z" fill="white"/>
</svg>
